<svg width="38" height="38" viewBox="0 0 38 38" fill="none" xmlns="http://www.w3.org/2000/svg">
<path d="M20.3003 2.26213C19.5047 1.77525 18.5012 1.77525 17.7056 2.26213C16.2569 3.14682 15.3603 3.38432 13.6622 3.34869C12.73 3.32494 11.8631 3.82963 11.4119 4.649C10.5984 6.13932 9.93937 6.79838 8.44905 7.61182C7.62968 8.05713 7.13093 8.92994 7.14874 9.86213C7.1903 11.5603 6.94687 12.4568 6.06218 13.9056C5.5753 14.7012 5.5753 15.7046 6.06218 16.5003C6.94687 17.949 7.18437 18.8456 7.14874 20.5437C7.12499 21.4759 7.62968 22.3428 8.44905 22.794C9.76124 23.5124 10.4262 24.1062 11.1269 25.2581L8.2353 31.0234C7.88499 31.7299 8.16999 32.5849 8.87062 32.9353L13.9769 35.4884C14.6597 35.8268 15.4909 35.5715 15.8591 34.9065L18.9941 29.2599L22.1291 34.9065C22.4972 35.5715 23.3284 35.8328 24.0112 35.4884L29.1175 32.9353C29.8241 32.5849 30.1091 31.7299 29.7528 31.0234L26.8672 25.2521C27.5619 24.1003 28.2328 23.5065 29.545 22.7881C30.3644 22.3428 30.8631 21.4699 30.8453 20.5378C30.8037 18.8396 31.0472 17.9431 31.9319 16.4943C32.4187 15.6987 32.4187 14.6953 31.9319 13.8996C31.0472 12.4509 30.8097 11.5543 30.8453 9.85619C30.8691 8.924 30.3644 8.05713 29.545 7.60588C28.0547 6.79244 27.3956 6.13338 26.5822 4.64307C26.1369 3.82369 25.2641 3.32494 24.3319 3.34275C22.6337 3.38432 21.7372 3.14088 20.2884 2.25619L20.3003 2.26213ZM19 9.49994C22.1469 9.49994 24.7 12.0531 24.7 15.1999C24.7 18.3468 22.1469 20.8999 19 20.8999C15.8531 20.8999 13.3 18.3468 13.3 15.1999C13.3 12.0531 15.8531 9.49994 19 9.49994Z" fill="#FDC702"/>
</svg>
